<svg xmlns="http://www.w3.org/2000/svg" width="1600" height="900" viewBox="0 0 1600 900" role="img" aria-label="Top 5 exit velos | Apr 06, 2025">
  <defs>
    <linearGradient id="bg" x1="0" y1="0" x2="1" y2="1">
      <stop offset="0%" stop-color="#041f1a" />
      <stop offset="48%" stop-color="#062d25" />
      <stop offset="100%" stop-color="#09120f" />
    </linearGradient>
    <linearGradient id="bar" x1="0" y1="0" x2="1" y2="0">
      <stop offset="0%" stop-color="#cbd4d0" />
      <stop offset="100%" stop-color="#0f5144" />
    </linearGradient>
    <filter id="softGlow" x="-20%" y="-20%" width="140%" height="140%">
      <feGaussianBlur stdDeviation="22" result="blur" />
      <feColorMatrix in="blur" type="matrix" values="0 0 0 0 0.79 0 0 0 0 0.83 0 0 0 0 0.82 0 0 0 0.38 0" />
      <feBlend in="SourceGraphic" />
    </filter>
    <style>
      .eyebrow { fill: #cbd4d0; font: 800 30px Arial, sans-serif; letter-spacing: 8px; }
      .title { fill: #ffffff; font: 900 62px Arial, sans-serif; letter-spacing: -2px; }
      .subtitle { fill: #cbd4d0; font: 500 29px Arial, sans-serif; }
      .rank { fill: #cbd4d0; font: 900 42px Arial, sans-serif; }
      .player { fill: #ffffff; font: 900 34px Arial, sans-serif; }
      .meta { fill: #cbd4d0; font: 500 23px Arial, sans-serif; }
      .value { fill: #041f1a; font: 900 34px Arial, sans-serif; text-anchor: middle; }
      .bar-bg { fill: rgba(255,255,255,0.09); }
      .bar { fill: url(#bar); }
      .footer { fill: #cbd4d0; font: 700 22px Arial, sans-serif; }
      .mark { fill: none; stroke: #cbd4d0; stroke-width: 2; opacity: 0.45; }
    </style>
  </defs>
  <rect width="1600" height="900" fill="url(#bg)" />
  <circle cx="1320" cy="78" r="280" fill="#cbd4d0" opacity="0.08" filter="url(#softGlow)" />
  <circle cx="124" cy="820" r="320" fill="#146553" opacity="0.16" />
  <rect x="44" y="44" width="1512" height="812" rx="44" fill="none" stroke="#cbd4d0" stroke-opacity="0.22" />
  <text x="96" y="72" class="eyebrow">@CheungAnalytics | EXIT VELO</text>
  <text x="96" y="112" class="title">Top 5 exit velos | Apr 06,</text><text x="96" y="180" class="title">2025</text>
  <text x="96" y="232" class="subtitle">Hardest-hit MLB balls in play from Baseball Savant Statcast.</text>
  
            <g transform="translate(96 288)">
              <text x="0" y="32" class="rank">#1</text>
              <text x="104" y="18" class="player">Jhonkensy Noel</text>
              <text x="104" y="58" class="meta">CLE | vs LAA | Field Out | 87 ft | 3 deg</text>
              <rect x="640" y="0" width="800" height="58" rx="29" class="bar-bg" />
              <rect x="640" y="0" width="760" height="58" rx="29" class="bar" />
              <text x="1400" y="40" class="value">116.1</text>
            </g>
            
            <g transform="translate(96 388)">
              <text x="0" y="32" class="rank">#2</text>
              <text x="104" y="18" class="player">Corbin Carroll</text>
              <text x="104" y="58" class="meta">AZ | vs WSH | Triple | 133 ft | 6 deg</text>
              <rect x="640" y="0" width="800" height="58" rx="29" class="bar-bg" />
              <rect x="640" y="0" width="758" height="58" rx="29" class="bar" />
              <text x="1400" y="40" class="value">115.8</text>
            </g>
            
            <g transform="translate(96 488)">
              <text x="0" y="32" class="rank">#3</text>
              <text x="104" y="18" class="player">Jorge Soler</text>
              <text x="104" y="58" class="meta">LAA | vs CLE | Home Run | 397 ft | 18 deg</text>
              <rect x="640" y="0" width="800" height="58" rx="29" class="bar-bg" />
              <rect x="640" y="0" width="737" height="58" rx="29" class="bar" />
              <text x="1400" y="40" class="value">112.7</text>
            </g>
            
            <g transform="translate(96 588)">
              <text x="0" y="32" class="rank">#4</text>
              <text x="104" y="18" class="player">Matt Wallner</text>
              <text x="104" y="58" class="meta">MIN | vs HOU | Single | 180 ft | 7 deg</text>
              <rect x="640" y="0" width="800" height="58" rx="29" class="bar-bg" />
              <rect x="640" y="0" width="733" height="58" rx="29" class="bar" />
              <text x="1400" y="40" class="value">112.0</text>
            </g>
            
            <g transform="translate(96 688)">
              <text x="0" y="32" class="rank">#5</text>
              <text x="104" y="18" class="player">Luis Matos</text>
              <text x="104" y="58" class="meta">SF | vs SEA | Field Out | 83 ft | 2 deg</text>
              <rect x="640" y="0" width="800" height="58" rx="29" class="bar-bg" />
              <rect x="640" y="0" width="730" height="58" rx="29" class="bar" />
              <text x="1400" y="40" class="value">111.6</text>
            </g>
            
  <path class="mark" d="M1344 116 l44 54 l44 -54 l62 120 l-106 126 l-106 -126 z" />
  <text x="96" y="824" class="footer">Cheung Analytics | Original data graphic | Not affiliated with MLB</text>
  <text x="1504" y="824" class="footer" text-anchor="end">Data: Baseball Savant Statcast</text>
</svg>
